<svg id="_-Way_Stretch" data-name="$-Way Stretch" xmlns="http://www.w3.org/2000/svg" viewBox="0 0 194.88 194.88"><defs><style>.cls-1{fill:#ff671f;}.cls-2{fill:#2dccd3;}</style></defs><title>4_way_stretch</title><polygon class="cls-1" points="82.42 57.04 46.16 46.3 57.12 82.5 65.13 74.44 83.07 92.37 92.37 83.07 74.41 65.1 82.42 57.04"/><polygon class="cls-1" points="129.75 120.44 111.81 102.51 102.51 111.81 120.47 129.78 112.46 137.84 148.72 148.58 137.76 112.38 129.75 120.44"/><polygon class="cls-2" points="111.81 92.37 129.78 74.41 137.84 82.42 148.58 46.16 112.38 57.12 120.44 65.13 102.51 83.07 111.81 92.37"/><polygon class="cls-2" points="83.07 102.51 65.1 120.47 57.04 112.46 46.3 148.72 82.5 137.76 74.44 129.75 92.37 111.81 83.07 102.51"/><path d="M97.44,0a97.44,97.44,0,1,0,97.44,97.44A97.44,97.44,0,0,0,97.44,0Zm0,182.88a85.45,85.45,0,1,1,85.45-85.45A85.45,85.45,0,0,1,97.44,182.89Z" transform="translate(-0.01 -0.01)"/></svg>