<svg id="Aero_Sleeves" data-name="Aero Sleeves" xmlns="http://www.w3.org/2000/svg" viewBox="0 0 194.88 194.88"><defs><style>.cls-1{fill:#2dccd3;}.cls-2{fill:#ff671f;}</style></defs><title>aero_sleeves</title><path class="cls-1" d="M128.73,57.54l5.1-9.31-10.32-5.65-4.89,8.93a51.19,51.19,0,0,0-15.51-4.25V43.09h2a3.55,3.55,0,0,0,3.55-3.55V32.48a3.55,3.55,0,0,0-3.55-3.55H89.75a3.55,3.55,0,0,0-3.55,3.55v7.06a3.55,3.55,0,0,0,3.55,3.55h2v4.17A51.68,51.68,0,1,0,128.73,57.54ZM97.44,137.9a39.34,39.34,0,1,1,39.34-39.34A39.38,39.38,0,0,1,97.44,137.9Z" transform="translate(-0.01 -0.01)"/><path class="cls-2" d="M100.73,88.91V64.17H94.16V88.91A10.19,10.19,0,1,0,100.73,88.91Z" transform="translate(-0.01 -0.01)"/><path d="M97.44,0a97.44,97.44,0,1,0,97.44,97.44A97.44,97.44,0,0,0,97.44,0Zm0,182.88a85.45,85.45,0,1,1,85.45-85.45A85.45,85.45,0,0,1,97.44,182.89Z" transform="translate(-0.01 -0.01)"/></svg>