<svg id="Antibacterial" xmlns="http://www.w3.org/2000/svg" viewBox="0 0 194.88 194.88"><defs><style>.cls-1{fill:#ff671f;}.cls-2{fill:#2dccd3;}</style></defs><title>antibacterial</title><path class="cls-1" d="M84.59,74.56A244,244,0,0,0,74.42,45a8.32,8.32,0,1,0-15.33,6.46A231.63,231.63,0,0,1,68.5,78.77,8.32,8.32,0,0,0,84.59,74.56Z" transform="translate(-0.01 -0.01)"/><path class="cls-1" d="M82.73,113.18a8.32,8.32,0,0,0,11.18,3.67,244,244,0,0,0,26.79-16.17,8.32,8.32,0,1,0-9.54-13.63A231.63,231.63,0,0,1,86.4,102,8.32,8.32,0,0,0,82.73,113.18Z" transform="translate(-0.01 -0.01)"/><path class="cls-2" d="M160.82,79.92a8.32,8.32,0,0,0-11,4.22,243.93,243.93,0,0,0-10.77,29.38,8.32,8.32,0,0,0,16,4.54,231.62,231.62,0,0,1,10-27.15A8.32,8.32,0,0,0,160.82,79.92Z" transform="translate(-0.01 -0.01)"/><path class="cls-2" d="M139.54,47.08a8.3,8.3,0,0,0-5.35-4.31A244,244,0,0,0,103.45,37a8.32,8.32,0,0,0-1.83,16.54A231.59,231.59,0,0,1,130,58.88,8.32,8.32,0,0,0,139.54,47.08Z" transform="translate(-0.01 -0.01)"/><path class="cls-2" d="M55.19,99.74a8.32,8.32,0,0,0-16.59,1.35A244,244,0,0,0,43.48,132a8.32,8.32,0,1,0,16.22-3.7A231.63,231.63,0,0,1,55.19,99.74Z" transform="translate(-0.01 -0.01)"/><path class="cls-1" d="M114.24,143.29a231.61,231.61,0,0,1-28.91.4,8.32,8.32,0,0,0-1,16.61,244,244,0,0,0,31.29-.43A8.32,8.32,0,1,0,114.24,143.29Z" transform="translate(-0.01 -0.01)"/><path d="M97.44,0a97.44,97.44,0,1,0,97.44,97.44A97.44,97.44,0,0,0,97.44,0Zm0,182.88a85.45,85.45,0,1,1,85.45-85.45A85.45,85.45,0,0,1,97.44,182.89Z" transform="translate(-0.01 -0.01)"/></svg>