<svg id="Breathable" xmlns="http://www.w3.org/2000/svg" viewBox="0 0 194.88 194.88"><defs><style>.cls-1{fill:#2dccd3;}.cls-2{fill:#ff671f;}</style></defs><title>breathable</title><circle class="cls-1" cx="135.78" cy="106.89" r="7.1"/><circle class="cls-1" cx="164.16" cy="78.5" r="7.1"/><circle class="cls-1" cx="79.01" cy="163.65" r="7.1"/><circle class="cls-1" cx="107.4" cy="135.27" r="7.1"/><circle class="cls-1" cx="121.59" cy="149.46" r="7.1"/><circle class="cls-1" cx="149.97" cy="121.08" r="7.1"/><path class="cls-2" d="M80.76,55.84L44.62,44.89,55.34,81.1l9.1-9,84.06,84.06a78.31,78.31,0,0,0,7.58-7.49L72,64.55Z" transform="translate(-0.01 -0.01)"/><path class="cls-2" d="M141,58.23L104.87,47.28l10.72,36.21,9.1-9,47,47a77,77,0,0,0,2.92-12.14L132.24,66.94Z" transform="translate(-0.01 -0.01)"/><path class="cls-2" d="M83.51,115.73L47.37,104.78,58.09,141l9.1-9,42.17,42.17a77,77,0,0,0,12.21-2.86L74.74,124.45Z" transform="translate(-0.01 -0.01)"/><path d="M97.44,0a97.44,97.44,0,1,0,97.44,97.44A97.44,97.44,0,0,0,97.44,0Zm0,182.88a85.45,85.45,0,1,1,85.45-85.45A85.45,85.45,0,0,1,97.44,182.89Z" transform="translate(-0.01 -0.01)"/></svg>