<svg id="Quick_Dry" data-name="Quick Dry" xmlns="http://www.w3.org/2000/svg" viewBox="0 0 194.88 194.88"><defs><style>.cls-1{fill:#2dccd3;}.cls-2{fill:#ff671f;}</style></defs><title>quick_dry</title><circle class="cls-1" cx="135.35" cy="106.77" r="7.1"/><circle class="cls-1" cx="149.54" cy="92.58" r="7.1"/><circle class="cls-1" cx="163.73" cy="106.77" r="7.1"/><circle class="cls-1" cx="163.73" cy="78.39" r="7.1"/><circle class="cls-1" cx="78.58" cy="163.54" r="7.1"/><circle class="cls-1" cx="92.77" cy="149.34" r="7.1"/><circle class="cls-1" cx="106.96" cy="163.54" r="7.1"/><circle class="cls-1" cx="106.96" cy="135.15" r="7.1"/><circle class="cls-1" cx="121.16" cy="149.34" r="7.1"/><circle class="cls-1" cx="121.16" cy="120.96" r="7.1"/><circle class="cls-1" cx="135.35" cy="135.15" r="7.1"/><circle class="cls-1" cx="149.54" cy="120.96" r="7.1"/><polygon class="cls-2" points="59.59 102.89 48.21 126.64 71.96 115.26 73.49 135.15 138.02 70.62 118.13 69.09 129.5 45.34 105.76 56.72 103.73 30.46 88.86 52.19 73.98 30.46 71.96 56.72 48.21 45.34 59.59 69.09 33.33 71.11 55.06 85.99 33.33 100.87 59.59 102.89"/><path d="M97.44,0a97.44,97.44,0,1,0,97.44,97.44A97.44,97.44,0,0,0,97.44,0Zm0,182.88a85.45,85.45,0,1,1,85.45-85.45A85.45,85.45,0,0,1,97.44,182.89Z" transform="translate(-0.01 -0.01)"/></svg>