<svg id="Race_Fit" data-name="Race Fit" xmlns="http://www.w3.org/2000/svg" viewBox="0 0 194.88 194.88"><defs><style>.cls-1{fill:none;}.cls-2{fill:#2dccd3;}.cls-3{fill:#ff671f;}</style></defs><title>race_fit</title><path d="M97.44,0a97.44,97.44,0,1,0,97.44,97.44A97.44,97.44,0,0,0,97.44,0Zm0,182.88a85.45,85.45,0,1,1,85.45-85.45A85.45,85.45,0,0,1,97.44,182.89Z" transform="translate(-0.01 -0.01)"/><rect class="cls-1" x="85.98" y="86.82" width="21.23" height="21.23"/><path class="cls-2" d="M136.83,150.53h17.34a77.54,77.54,0,0,0,0-106.16H136.83V150.53Z" transform="translate(-0.01 -0.01)"/><path class="cls-2" d="M55.73,150.53V44.37h-15a77.54,77.54,0,0,0,0,106.16h15Z" transform="translate(-0.01 -0.01)"/><rect class="cls-3" x="107.22" y="44.36" width="21.23" height="21.23"/><rect class="cls-3" x="85.98" y="65.59" width="21.23" height="21.23"/><rect class="cls-3" x="107.22" y="86.82" width="21.23" height="21.23"/><rect class="cls-3" x="85.98" y="108.06" width="21.23" height="21.23"/><rect class="cls-3" x="64.75" y="44.36" width="21.23" height="21.23"/><rect class="cls-3" x="64.75" y="86.82" width="21.23" height="21.23"/><rect class="cls-3" x="107.22" y="129.29" width="21.23" height="21.23"/><rect class="cls-3" x="64.75" y="129.29" width="21.23" height="21.23"/></svg>