<svg id="Showerproof" xmlns="http://www.w3.org/2000/svg" viewBox="0 0 194.88 194.88"><defs><style>.cls-1{fill:#ff671f;}.cls-2{fill:#2dccd3;}</style></defs><title>showerproof</title><path d="M97.44,0a97.44,97.44,0,1,0,97.44,97.44A97.44,97.44,0,0,0,97.44,0Zm0,182.88a85.45,85.45,0,1,1,85.45-85.45A85.45,85.45,0,0,1,97.44,182.89Z" transform="translate(-0.01 -0.01)"/><path class="cls-1" d="M79.7,173.12L173.12,79.7a77.05,77.05,0,0,0-3.64-11.44L68.25,169.48A77,77,0,0,0,79.7,173.12Z" transform="translate(-0.01 -0.01)"/><path class="cls-1" d="M97.44,175.19c2.22,0,4.41-.12,6.58-0.3L174.89,104c0.18-2.17.3-4.36,0.3-6.58a78.2,78.2,0,0,0-.45-8.35L89.1,174.73A78.23,78.23,0,0,0,97.44,175.19Z" transform="translate(-0.01 -0.01)"/><path class="cls-1" d="M172.61,117.32L117.32,172.6A78,78,0,0,0,172.61,117.32Z" transform="translate(-0.01 -0.01)"/><path class="cls-2" d="M88.84,95.55s-21,.87-26.6,6.44A14.26,14.26,0,0,0,82.4,122.14C88,116.58,88.84,95.55,88.84,95.55Z" transform="translate(-0.01 -0.01)"/><path class="cls-2" d="M127.6,56.78s-21,.87-26.6,6.44a14.26,14.26,0,0,0,20.16,20.16C126.73,77.81,127.6,56.78,127.6,56.78Z" transform="translate(-0.01 -0.01)"/><path class="cls-2" d="M81.36,46.6s-21,.87-26.6,6.44A14.26,14.26,0,0,0,74.93,73.19C80.5,67.62,81.36,46.6,81.36,46.6Z" transform="translate(-0.01 -0.01)"/></svg>