<svg id="Thermal" xmlns="http://www.w3.org/2000/svg" viewBox="0 0 194.88 194.88"><defs><style>.cls-1{fill:#2dccd3;}.cls-2{fill:#ff671f;}</style></defs><title>thermal</title><path class="cls-1" d="M95.71,169.89a32.22,32.22,0,0,0,23.74-54V48.74a23.74,23.74,0,0,0-47.49,0v67.1A32.22,32.22,0,0,0,95.71,169.89ZM83.13,48.74a12.59,12.59,0,0,1,25.18,0v3.46H99.91v7.11h8.39v11H99.91v7.11h8.39v11H99.91v7.11h8.39v25.1a21.1,21.1,0,1,1-25.18,0v-72Z" transform="translate(-0.01 -0.01)"/><path class="cls-2" d="M95.66,146.76a9.1,9.1,0,0,0,4.25-17.16V106.85H91.41v22.76A9.1,9.1,0,0,0,95.66,146.76Z" transform="translate(-0.01 -0.01)"/><path d="M97.44,0a97.44,97.44,0,1,0,97.44,97.44A97.44,97.44,0,0,0,97.44,0Zm0,182.88a85.45,85.45,0,1,1,85.45-85.45A85.45,85.45,0,0,1,97.44,182.89Z" transform="translate(-0.01 -0.01)"/></svg>