<svg id="Valuables_Pocket" data-name="Valuables Pocket" xmlns="http://www.w3.org/2000/svg" viewBox="0 0 194.88 194.88"><defs><style>.cls-1{fill:#ff671f;}.cls-2{fill:#2dccd3;}</style></defs><title>valuables_pocket</title><path class="cls-1" d="M97.44,19.8a77.64,77.64,0,1,0,77.64,77.64A77.64,77.64,0,0,0,97.44,19.8ZM68.87,55.62H126l1.78,2,21.48,23.79,2,2.19-2,2.57-47.77,62.29-4.07,5.31-4.07-5.31L45.61,86.13l-2-2.57,2-2.19L67.09,57.59Z" transform="translate(-0.01 -0.01)"/><polygon class="cls-2" points="88.94 61.87 75.08 61.87 77.24 75.06 88.94 61.87"/><polygon class="cls-2" points="111.52 79.87 97.44 64 83.36 79.87 111.52 79.87"/><polygon class="cls-2" points="119.8 61.87 105.94 61.87 117.64 75.06 119.8 61.87"/><polygon class="cls-2" points="67.89 66.03 55.41 79.87 70.15 79.87 67.89 66.03"/><polygon class="cls-2" points="126.99 66.03 124.73 79.87 139.48 79.87 126.99 66.03"/><polygon class="cls-2" points="71.74 87.64 54.65 87.64 88.5 131.78 71.74 87.64"/><polygon class="cls-2" points="140.23 87.64 123.14 87.64 106.38 131.78 140.23 87.64"/><polygon class="cls-2" points="80.05 87.64 97.44 133.44 114.83 87.64 80.05 87.64"/><path d="M97.44,0a97.44,97.44,0,1,0,97.44,97.44A97.44,97.44,0,0,0,97.44,0Zm0,182.88a85.45,85.45,0,1,1,85.45-85.45A85.45,85.45,0,0,1,97.44,182.89Z" transform="translate(-0.01 -0.01)"/></svg>