<svg id="Waterproof" xmlns="http://www.w3.org/2000/svg" viewBox="0 0 194.88 194.88"><defs><style>.cls-1{fill:#ff671f;}.cls-2{fill:#2dccd3;}</style></defs><title>waterproof</title><path d="M97.43,0a97.44,97.44,0,1,0,97.44,97.44A97.44,97.44,0,0,0,97.43,0h0Zm0,182.88a85.45,85.45,0,1,1,85.45-85.45h0a85.45,85.45,0,0,1-85.44,85.46h0Z" transform="translate(0.01 0)"/><path class="cls-1" d="M97.43,175.19a77.74,77.74,0,0,0,73.14-104.1l-99.5,99.5A77.38,77.38,0,0,0,97.43,175.19Z" transform="translate(0.01 0)"/><path class="cls-2" d="M93.25,97s-21,.87-26.6,6.44A14.26,14.26,0,0,0,86.81,123.6C92.38,118,93.25,97,93.25,97Z" transform="translate(0.01 0)"/><path class="cls-2" d="M132,58.24s-21,.87-26.6,6.44a14.26,14.26,0,0,0,20.16,20.16C131.14,79.27,132,58.24,132,58.24Z" transform="translate(0.01 0)"/><path class="cls-2" d="M85.78,48s-21,.87-26.6,6.44A14.26,14.26,0,0,0,79.34,74.65C84.91,69.08,85.78,48,85.78,48Z" transform="translate(0.01 0)"/></svg>