<svg id="Windproof" xmlns="http://www.w3.org/2000/svg" viewBox="0 0 194.88 194.88"><defs><style>.cls-1{fill:#ff671f;}.cls-2{fill:#5ec4c3;}</style></defs><title>windproof</title><path class="cls-1" d="M170.58,71.09l-99.5,99.5A77.74,77.74,0,0,0,170.58,71.09Z" transform="translate(-0.01 -0.01)"/><path class="cls-2" d="M134.79,29.28A77.17,77.17,0,0,0,111.69,21L125,34.39a24.44,24.44,0,0,1,0,34.53l-5.39,5.39A35,35,0,0,0,109.42,50L80.9,21.49A77,77,0,0,0,69.31,25l32.57,32.56a24.44,24.44,0,0,1,0,34.53l-5.1,5.1A34.83,34.83,0,0,0,86.53,72.9L49.75,36.12a78.36,78.36,0,0,0-8,7.12L79,80.44A24.42,24.42,0,0,1,79,115l-8.51,8.51-8.86-8.92-11,36.19L86.92,140,78,131l54.59-54.59A35.12,35.12,0,0,0,134.79,29.28Z" transform="translate(-0.01 -0.01)"/><path d="M97.44,0a97.44,97.44,0,1,0,97.44,97.44A97.44,97.44,0,0,0,97.44,0Zm0,182.88a85.45,85.45,0,1,1,85.45-85.45A85.45,85.45,0,0,1,97.44,182.89Z" transform="translate(-0.01 -0.01)"/></svg>