<svg id="_-Way_Stretch" data-name=" -Way Stretch" xmlns="http://www.w3.org/2000/svg" viewBox="0 0 194.88 194.88"><defs><style>.cls-1{fill:#ff671f;}.cls-2{fill:#2dccd3;}</style></defs><title>4_way_stretch</title><polygon class="cls-1" points="82.43 57.05 46.17 46.31 57.13 82.51 65.14 74.45 83.08 92.38 92.38 83.08 74.42 65.11 82.43 57.05"/><polygon class="cls-1" points="129.76 120.45 111.82 102.52 102.52 111.82 120.48 129.79 112.47 137.85 148.73 148.59 137.77 112.39 129.76 120.45"/><polygon class="cls-2" points="111.82 92.38 129.79 74.42 137.85 82.43 148.59 46.17 112.39 57.13 120.45 65.14 102.52 83.08 111.82 92.38"/><polygon class="cls-2" points="83.08 102.52 65.11 120.48 57.05 112.47 46.31 148.73 82.51 137.77 74.45 129.76 92.38 111.82 83.08 102.52"/><path d="M97.43,0a97.44,97.44,0,1,0,97.44,97.44A97.44,97.44,0,0,0,97.43,0h0Zm0,182.88a85.45,85.45,0,1,1,85.45-85.45h0a85.45,85.45,0,0,1-85.44,85.46h0Z" transform="translate(0.01 0.01)"/></svg>