<svg id="Aero_Sleeves" data-name="Aero Sleeves" xmlns="http://www.w3.org/2000/svg" viewBox="0 0 194.88 194.88"><defs><style>.cls-1{fill:#2dccd3;}.cls-2{fill:#ff671f;}</style></defs><title>aero_sleeves</title><path class="cls-1" d="M128.72,57.53l5.1-9.31L123.5,42.57l-4.89,8.93a51.19,51.19,0,0,0-15.51-4.25V43.08h2a3.55,3.55,0,0,0,3.55-3.55h0V32.47a3.55,3.55,0,0,0-3.55-3.55H89.74a3.55,3.55,0,0,0-3.55,3.55h0v7.06a3.55,3.55,0,0,0,3.55,3.55h2v4.17A51.68,51.68,0,1,0,128.72,57.53ZM97.43,137.89a39.34,39.34,0,1,1,39.34-39.34h0A39.38,39.38,0,0,1,97.43,137.89Z" transform="translate(0.01 0.01)"/><path class="cls-2" d="M100.72,88.9V64.16H94.15V88.9A10.19,10.19,0,1,0,100.72,88.9Z" transform="translate(0.01 0.01)"/><path d="M97.43,0a97.44,97.44,0,1,0,97.44,97.44A97.44,97.44,0,0,0,97.43,0h0Zm0,182.88a85.45,85.45,0,1,1,85.45-85.45h0a85.45,85.45,0,0,1-85.44,85.46h0Z" transform="translate(0.01 0.01)"/></svg>