<svg id="Antibacterial" xmlns="http://www.w3.org/2000/svg" viewBox="0 0 194.88 194.88"><defs><style>.cls-1{fill:#ff671f;}.cls-2{fill:#2dccd3;}</style></defs><title>antibacterial</title><path class="cls-1" d="M84.58,74.55A244,244,0,0,0,74.41,45a8.32,8.32,0,1,0-15.48,6.1l0.15,0.36a231.63,231.63,0,0,1,9.41,27.31A8.32,8.32,0,0,0,84.58,74.55Z" transform="translate(0.01 0.01)"/><path class="cls-1" d="M82.72,113.17a8.32,8.32,0,0,0,11.18,3.67h0a244,244,0,0,0,26.79-16.17,8.32,8.32,0,0,0-9.28-13.81l-0.26.18A231.63,231.63,0,0,1,86.39,102a8.32,8.32,0,0,0-3.67,11.18h0Z" transform="translate(0.01 0.01)"/><path class="cls-2" d="M160.81,79.91a8.32,8.32,0,0,0-11,4.2v0A243.93,243.93,0,0,0,139,113.51,8.32,8.32,0,0,0,155,118,231.62,231.62,0,0,1,165,90.9a8.32,8.32,0,0,0-4.22-11h0Z" transform="translate(0.01 0.01)"/><path class="cls-2" d="M139.53,47.07a8.3,8.3,0,0,0-5.35-4.31A244,244,0,0,0,103.44,37a8.32,8.32,0,1,0-1.83,16.54h0A231.59,231.59,0,0,1,130,58.87,8.32,8.32,0,0,0,139.53,47.07Z" transform="translate(0.01 0.01)"/><path class="cls-2" d="M55.18,99.73a8.32,8.32,0,1,0-16.59,1.35A244,244,0,0,0,43.47,132a8.32,8.32,0,0,0,16.29-3.37q0-.16-0.07-0.33A231.63,231.63,0,0,1,55.18,99.73Z" transform="translate(0.01 0.01)"/><path class="cls-1" d="M114.23,143.28a231.61,231.61,0,0,1-28.91.4,8.32,8.32,0,0,0-1,16.61,244,244,0,0,0,31.29-.43,8.32,8.32,0,1,0-1.08-16.6Z" transform="translate(0.01 0.01)"/><path d="M97.43,0a97.44,97.44,0,1,0,97.44,97.44A97.44,97.44,0,0,0,97.43,0h0Zm0,182.88a85.45,85.45,0,1,1,85.45-85.45h0a85.45,85.45,0,0,1-85.44,85.46h0Z" transform="translate(0.01 0.01)"/></svg>