<svg id="Breathable" xmlns="http://www.w3.org/2000/svg" viewBox="0 0 194.88 194.88"><defs><style>.cls-1{fill:#2dccd3;}.cls-2{fill:#ff671f;}</style></defs><title>breathable</title><circle class="cls-1" cx="135.79" cy="106.9" r="7.1"/><circle class="cls-1" cx="164.17" cy="78.51" r="7.1"/><circle class="cls-1" cx="79.02" cy="163.66" r="7.1"/><circle class="cls-1" cx="107.41" cy="135.28" r="7.1"/><circle class="cls-1" cx="121.6" cy="149.47" r="7.1"/><circle class="cls-1" cx="149.98" cy="121.09" r="7.1"/><path class="cls-2" d="M80.75,55.83l-36.14-11L55.33,81.09l9.1-9,84.06,84.06a78.31,78.31,0,0,0,7.58-7.49L72,64.54Z" transform="translate(0.01 0.01)"/><path class="cls-2" d="M141,58.22l-36.13-11,10.72,36.21,9.1-9,47,47a77,77,0,0,0,2.92-12.14L132.23,66.93Z" transform="translate(0.01 0.01)"/><path class="cls-2" d="M83.5,115.72l-36.14-11L58.08,141l9.1-9,42.17,42.17a77,77,0,0,0,12.21-2.86L74.73,124.44Z" transform="translate(0.01 0.01)"/><path d="M97.43,0a97.44,97.44,0,1,0,97.44,97.44A97.44,97.44,0,0,0,97.43,0h0Zm0,182.88a85.45,85.45,0,1,1,85.45-85.45h0a85.45,85.45,0,0,1-85.44,85.46h0Z" transform="translate(0.01 0.01)"/></svg>