<svg id="Quick_Dry" data-name="Quick Dry" xmlns="http://www.w3.org/2000/svg" viewBox="0 0 194.88 194.88"><defs><style>.cls-1{fill:#2dccd3;}.cls-2{fill:#ff671f;}</style></defs><title>quick_dry</title><circle class="cls-1" cx="135.36" cy="106.78" r="7.1"/><circle class="cls-1" cx="149.55" cy="92.59" r="7.1"/><circle class="cls-1" cx="163.74" cy="106.78" r="7.1"/><circle class="cls-1" cx="163.74" cy="78.4" r="7.1"/><circle class="cls-1" cx="78.59" cy="163.55" r="7.1"/><circle class="cls-1" cx="92.78" cy="149.35" r="7.1"/><circle class="cls-1" cx="106.97" cy="163.55" r="7.1"/><circle class="cls-1" cx="106.97" cy="135.16" r="7.1"/><circle class="cls-1" cx="121.17" cy="149.35" r="7.1"/><circle class="cls-1" cx="121.17" cy="120.97" r="7.1"/><circle class="cls-1" cx="135.36" cy="135.16" r="7.1"/><circle class="cls-1" cx="149.55" cy="120.97" r="7.1"/><polygon class="cls-2" points="59.6 102.9 48.22 126.65 71.97 115.27 73.5 135.16 138.03 70.63 118.14 69.1 129.51 45.35 105.77 56.73 103.74 30.47 88.87 52.2 73.99 30.47 71.97 56.73 48.22 45.35 59.6 69.1 33.34 71.12 55.07 86 33.34 100.88 59.6 102.9"/><path d="M97.43,0a97.44,97.44,0,1,0,97.44,97.44A97.44,97.44,0,0,0,97.43,0h0Zm0,182.88a85.45,85.45,0,1,1,85.45-85.45h0a85.45,85.45,0,0,1-85.44,85.46h0Z" transform="translate(0.01 0.01)"/></svg>