<svg id="Race_Fit" data-name="Race Fit" xmlns="http://www.w3.org/2000/svg" viewBox="0 0 194.88 194.88"><defs><style>.cls-1{fill:none;}.cls-2{fill:#2dccd3;}.cls-3{fill:#ff671f;}</style></defs><title>race_fit</title><path d="M97.43,0a97.44,97.44,0,1,0,97.44,97.44A97.44,97.44,0,0,0,97.43,0h0Zm0,182.88a85.45,85.45,0,1,1,85.45-85.45h0a85.45,85.45,0,0,1-85.44,85.46h0Z" transform="translate(0.01 0.01)"/><rect class="cls-1" x="85.99" y="86.83" width="21.23" height="21.23"/><path class="cls-2" d="M136.82,150.52h17.34a77.54,77.54,0,0,0,0-106.16H136.82V150.52Z" transform="translate(0.01 0.01)"/><path class="cls-2" d="M55.72,150.52V44.36h-15a77.54,77.54,0,0,0,0,106.16h15Z" transform="translate(0.01 0.01)"/><rect class="cls-3" x="107.23" y="44.37" width="21.23" height="21.23"/><rect class="cls-3" x="85.99" y="65.6" width="21.23" height="21.23"/><rect class="cls-3" x="107.23" y="86.83" width="21.23" height="21.23"/><rect class="cls-3" x="85.99" y="108.07" width="21.23" height="21.23"/><rect class="cls-3" x="64.76" y="44.37" width="21.23" height="21.23"/><rect class="cls-3" x="64.76" y="86.83" width="21.23" height="21.23"/><rect class="cls-3" x="107.23" y="129.3" width="21.23" height="21.23"/><rect class="cls-3" x="64.76" y="129.3" width="21.23" height="21.23"/></svg>