<svg id="Showerproof" xmlns="http://www.w3.org/2000/svg" viewBox="0 0 194.88 194.88"><defs><style>.cls-1{fill:#ff671f;}.cls-2{fill:#2dccd3;}</style></defs><title>showerproof</title><path d="M97.43,0a97.44,97.44,0,1,0,97.44,97.44A97.44,97.44,0,0,0,97.43,0h0Zm0,182.88a85.45,85.45,0,1,1,85.45-85.45h0a85.45,85.45,0,0,1-85.44,85.46h0Z" transform="translate(0.01 0.01)"/><path class="cls-1" d="M79.69,173.11l93.42-93.42a77,77,0,0,0-3.64-11.44L68.24,169.47A77,77,0,0,0,79.69,173.11Z" transform="translate(0.01 0.01)"/><path class="cls-1" d="M97.43,175.18c2.22,0,4.41-.12,6.58-0.3L174.88,104c0.18-2.17.3-4.36,0.3-6.58a78.2,78.2,0,0,0-.45-8.35L89.09,174.72A78.23,78.23,0,0,0,97.43,175.18Z" transform="translate(0.01 0.01)"/><path class="cls-1" d="M172.6,117.31l-55.29,55.28A78,78,0,0,0,172.6,117.31Z" transform="translate(0.01 0.01)"/><path class="cls-2" d="M88.83,95.54s-21,.87-26.6,6.44a14.26,14.26,0,0,0,20.16,20.15C88,116.57,88.83,95.54,88.83,95.54Z" transform="translate(0.01 0.01)"/><path class="cls-2" d="M127.59,56.77s-21,.87-26.6,6.44a14.26,14.26,0,0,0,20.16,20.16C126.72,77.8,127.59,56.77,127.59,56.77Z" transform="translate(0.01 0.01)"/><path class="cls-2" d="M81.35,46.59s-21,.87-26.6,6.44A14.26,14.26,0,0,0,74.92,73.18C80.49,67.61,81.35,46.59,81.35,46.59Z" transform="translate(0.01 0.01)"/></svg>