<svg id="Thermal" xmlns="http://www.w3.org/2000/svg" viewBox="0 0 194.88 194.88"><defs><style>.cls-1{fill:#2dccd3;}.cls-2{fill:#ff671f;}</style></defs><title>thermal</title><path class="cls-1" d="M95.7,169.88a32.22,32.22,0,0,0,23.74-54V48.73a23.75,23.75,0,1,0-47.49,0v67.1A32.22,32.22,0,0,0,95.7,169.88ZM83.12,48.73a12.59,12.59,0,0,1,25.18,0v3.46H99.9V59.3h8.39v11H99.9v7.11h8.39v11H99.9v7.11h8.39v25.1a21.1,21.1,0,1,1-25.18,0V48.73Z" transform="translate(0.01 0.01)"/><path class="cls-2" d="M95.65,146.75a9.1,9.1,0,0,0,4.25-17.16V106.84H91.4V129.6A9.1,9.1,0,0,0,95.65,146.75Z" transform="translate(0.01 0.01)"/><path d="M97.43,0a97.44,97.44,0,1,0,97.44,97.44A97.44,97.44,0,0,0,97.43,0h0Zm0,182.88a85.45,85.45,0,1,1,85.45-85.45h0a85.45,85.45,0,0,1-85.44,85.46h0Z" transform="translate(0.01 0.01)"/></svg>