<svg id="Valuables_Pocket" data-name="Valuables Pocket" xmlns="http://www.w3.org/2000/svg" viewBox="0 0 194.88 194.88"><defs><style>.cls-1{fill:#ff671f;}.cls-2{fill:#2dccd3;}</style></defs><title>valuables_pocket</title><path class="cls-1" d="M97.43,19.79a77.64,77.64,0,1,0,77.64,77.64A77.64,77.64,0,0,0,97.43,19.79h0ZM68.86,55.61H126l1.78,2L149.25,81.4l2,2.19-2,2.57-47.77,62.29-4.07,5.31-4.07-5.31L45.6,86.12l-2-2.57,2-2.19L67.08,57.58Z" transform="translate(0.01 0.01)"/><polygon class="cls-2" points="88.95 61.88 75.09 61.88 77.25 75.07 88.95 61.88"/><polygon class="cls-2" points="111.53 79.88 97.45 64.01 83.37 79.88 111.53 79.88"/><polygon class="cls-2" points="119.81 61.88 105.95 61.88 117.65 75.07 119.81 61.88"/><polygon class="cls-2" points="67.9 66.04 55.42 79.88 70.16 79.88 67.9 66.04"/><polygon class="cls-2" points="127 66.04 124.74 79.88 139.49 79.88 127 66.04"/><polygon class="cls-2" points="71.75 87.65 54.66 87.65 88.51 131.79 71.75 87.65"/><polygon class="cls-2" points="140.24 87.65 123.15 87.65 106.39 131.79 140.24 87.65"/><polygon class="cls-2" points="80.06 87.65 97.45 133.45 114.84 87.65 80.06 87.65"/><path d="M97.43,0a97.44,97.44,0,1,0,97.44,97.44A97.44,97.44,0,0,0,97.43,0h0Zm0,182.88a85.45,85.45,0,1,1,85.45-85.45h0a85.45,85.45,0,0,1-85.44,85.46h0Z" transform="translate(0.01 0.01)"/></svg>