<svg id="Windproof" xmlns="http://www.w3.org/2000/svg" viewBox="0 0 194.88 194.88"><defs><style>.cls-1{fill:#ff671f;}.cls-2{fill:#5ec4c3;}</style></defs><title>windproof</title><path class="cls-1" d="M170.57,71.08l-99.5,99.5A77.74,77.74,0,0,0,170.57,71.08Z" transform="translate(0.01 0.01)"/><path class="cls-2" d="M134.78,29.27A77.17,77.17,0,0,0,111.68,21L125,34.38a24.44,24.44,0,0,1,0,34.53L119.6,74.3A35,35,0,0,0,109.41,50L80.89,21.48A77,77,0,0,0,69.3,25l32.57,32.56a24.44,24.44,0,0,1,0,34.53l-5.1,5.1A34.83,34.83,0,0,0,86.52,72.89L49.74,36.11a78.36,78.36,0,0,0-8,7.12L79,80.43A24.42,24.42,0,0,1,79,115l0,0-8.51,8.51-8.86-8.92-11,36.19L86.91,140,78,131,132.58,76.4A35.12,35.12,0,0,0,134.78,29.27Z" transform="translate(0.01 0.01)"/><path d="M97.43,0a97.44,97.44,0,1,0,97.44,97.44A97.44,97.44,0,0,0,97.43,0h0Zm0,182.88a85.45,85.45,0,1,1,85.45-85.45h0a85.45,85.45,0,0,1-85.44,85.46h0Z" transform="translate(0.01 0.01)"/></svg>