<?xml version="1.0" encoding="utf-8"?>
<!-- Generator: Adobe Illustrator 19.2.0, SVG Export Plug-In . SVG Version: 6.00 Build 0)  -->
<svg version="1.1" id="Layer_1" xmlns="http://www.w3.org/2000/svg" xmlns:xlink="http://www.w3.org/1999/xlink" x="0px" y="0px"
	 viewBox="0 0 294 294" style="enable-background:new 0 0 294 294;" xml:space="preserve">
<style type="text/css">
	.st0{fill:#FFFFFF;}
</style>
<path class="st0" d="M174,147L288.4,32.5c7.4-7.4,7.4-19.5,0-26.9c-7.4-7.4-19.5-7.4-26.9,0L147,120.1L32.5,5.6
	C25.1-1.9,13-1.9,5.6,5.6c-7.4,7.4-7.4,19.5,0,26.9L120.1,147L5.6,261.5c-7.4,7.4-7.4,19.5,0,26.9c7.4,7.4,19.5,7.4,26.9,0L147,174
	l114.5,114.5c7.4,7.4,19.5,7.4,26.9,0c7.4-7.4,7.4-19.5,0-26.9L174,147z"/>
</svg>
