<svg id="Layer_1" data-name="Layer 1" xmlns="http://www.w3.org/2000/svg" viewBox="0 0 400 290.26285"><defs><style>.cls-1{fill:#fff;}</style></defs><title>Milltag Icons</title><path class="cls-1" d="M19.05559,92.97976H380.94441a19.05559,19.05559,0,0,0,0-38.11119H19.05559A19.05559,19.05559,0,0,0,19.05559,92.97976Z" transform="translate(0 -54.86857)"/><path class="cls-1" d="M380.94441,307.02024H19.05559a19.05559,19.05559,0,1,0,0,38.11119H380.94441A19.05559,19.05559,0,1,0,380.94441,307.02024Z" transform="translate(0 -54.86857)"/><path class="cls-1" d="M380.94441,180.94441H19.05559a19.05559,19.05559,0,1,0,0,38.11119H380.94441A19.05559,19.05559,0,1,0,380.94441,180.94441Z" transform="translate(0 -54.86857)"/></svg>