<?xml version="1.0" encoding="utf-8"?>
<!-- Generator: Adobe Illustrator 19.2.0, SVG Export Plug-In . SVG Version: 6.00 Build 0)  -->
<svg version="1.1" id="Layer_1" xmlns="http://www.w3.org/2000/svg" xmlns:xlink="http://www.w3.org/1999/xlink" x="0px" y="0px"
	 viewBox="0 0 100 100" style="enable-background:new 0 0 100 100;" xml:space="preserve">
<title>Milltag_Logo_Mountain_RGB</title>
<path d="M50,0C22.4,0,0,22.4,0,50s22.4,50,50,50s50-22.4,50-50S77.6,0,50,0C50,0,50,0,50,0z M50,91.7C27,91.7,8.3,73,8.3,50
	S27,8.3,50,8.3C73,8.3,91.7,27,91.7,50C91.7,73,73,91.7,50,91.7L50,91.7z"/>
<path d="M50,16.6c-18.4,0-33.4,14.9-33.4,33.4S31.6,83.4,50,83.4S83.4,68.4,83.4,50S68.4,16.6,50,16.6L50,16.6z M55.9,37.3
	L41.6,57.1l-5.9-8.2l-8.4,11.5C21.5,47.9,27,33,39.6,27.3C52.1,21.5,67,27,72.7,39.6c3,6.6,3,14.2,0,20.9L55.9,37.3z"/>
</svg>
