<svg id="Layer_1" data-name="Layer 1" xmlns="http://www.w3.org/2000/svg" viewBox="0 0 600 129.91268"><defs><style>.cls-1{fill:#fff;}</style></defs><title>milltag_logo</title><path class="cls-1" d="M65.5152,135.95537a64.95634,64.95634,0,1,0,64.95634,64.95634A65.16711,65.16711,0,0,0,65.5152,135.95537Zm11.7,40.32918L49.20106,214.76572,37.504,198.76067,21.19,221.23377a48.69322,48.69322,0,1,1,92.97042-20.31611,48.97,48.97,0,0,1-4.31106,20.31611Z" transform="translate(-0.55886 -135.95537)"/><path class="cls-1" d="M256.99712,164.27854H273.0052v72.96038H256.99712V164.27854Z" transform="translate(-0.55886 -135.95537)"/><path class="cls-1" d="M290.86127,164.27854h16.00807v58.49424h31.09219v14.466H290.86127V164.27854Z" transform="translate(-0.55886 -135.95537)"/><path class="cls-1" d="M349.35551,164.27854h16.00807v58.49424h33.86415v14.466H349.35551V164.27854Z" transform="translate(-0.55886 -135.95537)"/><path class="cls-1" d="M416.46583,179.36256H394.30172V164.58451H454.638v14.77806H432.47088v58.18232H416.46281V179.36256h0.003Z" transform="translate(-0.55886 -135.95537)"/><path class="cls-1" d="M585.16877,199.98766v19.70408a26.39056,26.39056,0,0,1-15.08412,4.31106c-12.93006,0-22.167-9.852-22.167-23.08816v-0.309c0-12.31509,9.237-22.78209,20.93711-22.78209,8.313,0,13.54511,2.769,19.08609,7.38907l9.23405-12.93006c-7.38907-6.156-15.08412-9.23708-28.01417-9.23708-22.167,0-38.1752,16.93212-38.1752,37.86621v0.309c0,21.55208,15.69908,37.56015,38.48118,37.56015a46.67349,46.67349,0,0,0,31.09219-11.697V199.99069H585.16877v-0.003Z" transform="translate(-0.55886 -135.95537)"/><path class="cls-1" d="M162.79659,164.27854H180.0377l20.93409,30.17117,20.93409-30.17117H239.147v72.96038H223.13893V189.21469l-22.16713,30.47714-22.4731-30.17117v47.71523H162.79961V164.27854h-0.003Z" transform="translate(-0.55886 -135.95537)"/><path class="cls-1" d="M497.12125,164.27854H481.72814l-31.09219,72.96038H466.95l6.774-16.314h30.78613l6.774,16.314h16.93212Zm-17.54406,42.48022,9.849-23.70312,9.852,23.70312H479.57719Z" transform="translate(-0.55886 -135.95537)"/></svg>