<?xml version="1.0" encoding="utf-8"?>
<!-- Generator: Adobe Illustrator 19.2.0, SVG Export Plug-In . SVG Version: 6.00 Build 0)  -->
<svg version="1.1" id="_-Way_Stretch" xmlns="http://www.w3.org/2000/svg" xmlns:xlink="http://www.w3.org/1999/xlink" x="0px"
	 y="0px" viewBox="0 0 194.9 194.9" style="enable-background:new 0 0 194.9 194.9;" xml:space="preserve">
<style type="text/css">
	.st0{fill:#FF671F;}
	.st1{fill:#2DCCD3;}
</style>
<title>4_way_stretch</title>
<polygon class="st0" points="82.4,57 46.2,46.3 57.1,82.5 65.1,74.4 83.1,92.4 92.4,83.1 74.4,65.1 "/>
<polygon class="st0" points="129.8,120.4 111.8,102.5 102.5,111.8 120.5,129.8 112.5,137.9 148.7,148.6 137.8,112.4 "/>
<polygon class="st1" points="111.8,92.4 129.8,74.4 137.9,82.4 148.6,46.2 112.4,57.1 120.4,65.1 102.5,83.1 "/>
<polygon class="st1" points="83.1,102.5 65.1,120.5 57,112.5 46.3,148.7 82.5,137.8 74.4,129.8 92.4,111.8 "/>
<path d="M97.4,0C43.6,0,0,43.6,0,97.5s43.6,97.4,97.4,97.4s97.4-43.6,97.4-97.4l0,0C194.9,43.6,151.3,0,97.4,0L97.4,0z M97.4,182.9
	c-47.2,0-85.4-38.3-85.4-85.4S50.2,12,97.4,12s85.4,38.3,85.4,85.4l0,0C182.9,144.6,144.6,182.9,97.4,182.9
	C97.5,182.9,97.5,182.9,97.4,182.9L97.4,182.9L97.4,182.9z"/>
</svg>
