<?xml version="1.0" encoding="utf-8"?>
<!-- Generator: Adobe Illustrator 19.2.0, SVG Export Plug-In . SVG Version: 6.00 Build 0)  -->
<svg version="1.1" id="Aero_Sleeves" xmlns="http://www.w3.org/2000/svg" xmlns:xlink="http://www.w3.org/1999/xlink" x="0px"
	 y="0px" viewBox="0 0 194.9 194.9" style="enable-background:new 0 0 194.9 194.9;" xml:space="preserve">
<style type="text/css">
	.st0{fill:#2DCCD3;}
	.st1{fill:#FF671F;}
</style>
<title>aero_sleeves</title>
<path class="st0" d="M128.7,57.5l5.1-9.3l-10.3-5.6l-4.9,8.9c-4.9-2.2-10.1-3.7-15.5-4.2v-4.2h2c2,0,3.6-1.6,3.6-3.5c0,0,0,0,0,0
	l0,0v-7.1c0-2-1.6-3.5-3.6-3.5l0,0H89.8c-2,0-3.6,1.6-3.6,3.5c0,0,0,0,0,0l0,0v7.1c0,2,1.6,3.5,3.6,3.5l0,0h2v4.2
	c-28.4,3.1-48.8,28.6-45.7,57s28.6,48.8,57,45.7s48.8-28.6,45.7-57C147.2,78.9,140,66.1,128.7,57.5z M97.4,137.9
	c-21.7,0-39.3-17.6-39.3-39.3s17.6-39.3,39.3-39.3s39.3,17.6,39.3,39.3l0,0l0,0C136.8,120.3,119.2,137.9,97.4,137.9z"/>
<path class="st1" d="M100.7,88.9V64.2h-6.6v24.7c-5.3,1.8-8.2,7.6-6.4,12.9s7.6,8.2,12.9,6.4s8.2-7.6,6.4-12.9
	C106.1,92.3,103.7,89.9,100.7,88.9z"/>
<path d="M97.4,0C43.6,0,0,43.6,0,97.5s43.6,97.4,97.4,97.4s97.4-43.6,97.4-97.4l0,0C194.9,43.6,151.3,0,97.4,0L97.4,0z M97.4,182.9
	c-47.2,0-85.4-38.3-85.4-85.4S50.2,12,97.4,12s85.4,38.3,85.4,85.4l0,0C182.9,144.6,144.6,182.9,97.4,182.9
	C97.5,182.9,97.5,182.9,97.4,182.9L97.4,182.9L97.4,182.9z"/>
</svg>
