<?xml version="1.0" encoding="utf-8"?>
<!-- Generator: Adobe Illustrator 19.2.0, SVG Export Plug-In . SVG Version: 6.00 Build 0)  -->
<svg version="1.1" id="Antibacterial" xmlns="http://www.w3.org/2000/svg" xmlns:xlink="http://www.w3.org/1999/xlink" x="0px"
	 y="0px" viewBox="0 0 194.9 194.9" style="enable-background:new 0 0 194.9 194.9;" xml:space="preserve">
<style type="text/css">
	.st0{fill:#FF671F;}
	.st1{fill:#2DCCD3;}
</style>
<title>antibacterial</title>
<path class="st0" d="M84.6,74.6C81.8,64.5,78.4,54.6,74.4,45c-1.6-4.3-6.4-6.5-10.7-4.8c-4.3,1.6-6.5,6.4-4.8,10.7
	c0,0.1,0.1,0.1,0.1,0.2l0.2,0.4c3.7,8.9,6.8,18,9.4,27.3c1.3,4.4,5.9,6.9,10.3,5.7C83.1,83.2,85.6,78.9,84.6,74.6z"/>
<path class="st0" d="M82.7,113.2c2.1,4.1,7.1,5.7,11.2,3.7c0,0,0,0,0,0l0,0c9.3-4.8,18.2-10.2,26.8-16.2c3.8-2.6,4.7-7.8,2.1-11.6
	c-2.6-3.7-7.6-4.7-11.4-2.2l-0.3,0.2c-7.9,5.5-16.2,10.5-24.8,15C82.3,104.1,80.7,109.1,82.7,113.2
	C82.7,113.2,82.7,113.2,82.7,113.2L82.7,113.2L82.7,113.2z"/>
<path class="st1" d="M160.8,79.9c-4.2-1.9-9.1,0-11,4.2c0,0,0,0,0,0l0,0c-4.2,9.6-7.8,19.4-10.8,29.4c-1,4.5,1.8,8.9,6.3,9.9
	c4.2,0.9,8.4-1.4,9.7-5.5c2.8-9.2,6.1-18.3,10-27.1C166.9,86.7,165,81.8,160.8,79.9C160.8,79.9,160.8,79.9,160.8,79.9L160.8,79.9
	L160.8,79.9z"/>
<path class="st1" d="M139.5,47.1c-1.1-2.1-3-3.7-5.4-4.3c-10.1-2.6-20.4-4.5-30.7-5.8c-4.6-0.5-8.7,2.8-9.2,7.4
	c-0.5,4.6,2.8,8.7,7.4,9.2l0,0l0,0c9.6,1.2,19,3,28.4,5.3c4.4,1.2,9-1.5,10.2-5.9C140.7,51,140.5,48.9,139.5,47.1z"/>
<path class="st1" d="M55.2,99.7c-0.4-4.6-4.4-8-9-7.6c-4.6,0.4-8,4.4-7.6,9c1,10.4,2.6,20.7,4.9,30.9c1,4.5,5.5,7.3,10,6.2
	c4.3-1,7.1-5.2,6.3-9.6c0-0.1,0-0.2-0.1-0.3C57.6,118.9,56.1,109.3,55.2,99.7z"/>
<path class="st0" d="M114.2,143.3c-9.6,0.7-19.3,0.9-28.9,0.4c-4.6-0.3-8.5,3.2-8.8,7.8c-0.3,4.6,3.2,8.5,7.8,8.8l0,0
	c10.4,0.5,20.9,0.4,31.3-0.4c4.6-0.2,8.2-4.1,8-8.7c-0.2-4.6-4.1-8.2-8.7-8c-0.1,0-0.3,0-0.4,0L114.2,143.3z"/>
<path d="M97.4,0C43.6,0,0,43.6,0,97.5s43.6,97.4,97.4,97.4s97.4-43.6,97.4-97.4l0,0C194.9,43.6,151.3,0,97.4,0L97.4,0z M97.4,182.9
	c-47.2,0-85.4-38.3-85.4-85.4S50.2,12,97.4,12s85.4,38.3,85.4,85.4l0,0C182.9,144.6,144.6,182.9,97.4,182.9
	C97.5,182.9,97.5,182.9,97.4,182.9L97.4,182.9L97.4,182.9z"/>
</svg>
