<?xml version="1.0" encoding="utf-8"?>
<!-- Generator: Adobe Illustrator 19.2.0, SVG Export Plug-In . SVG Version: 6.00 Build 0)  -->
<svg version="1.1" id="Quick_Dry" xmlns="http://www.w3.org/2000/svg" xmlns:xlink="http://www.w3.org/1999/xlink" x="0px" y="0px"
	 viewBox="0 0 194.9 194.9" style="enable-background:new 0 0 194.9 194.9;" xml:space="preserve">
<style type="text/css">
	.st0{fill:#2DCCD3;}
	.st1{fill:#FF671F;}
</style>
<title>quick_dry</title>
<circle class="st0" cx="135.4" cy="106.8" r="7.1"/>
<circle class="st0" cx="149.6" cy="92.6" r="7.1"/>
<circle class="st0" cx="163.7" cy="106.8" r="7.1"/>
<circle class="st0" cx="163.7" cy="78.4" r="7.1"/>
<circle class="st0" cx="78.6" cy="163.6" r="7.1"/>
<circle class="st0" cx="92.8" cy="149.4" r="7.1"/>
<circle class="st0" cx="107" cy="163.6" r="7.1"/>
<circle class="st0" cx="107" cy="135.2" r="7.1"/>
<circle class="st0" cx="121.2" cy="149.4" r="7.1"/>
<circle class="st0" cx="121.2" cy="121" r="7.1"/>
<circle class="st0" cx="135.4" cy="135.2" r="7.1"/>
<circle class="st0" cx="149.6" cy="121" r="7.1"/>
<polygon class="st1" points="59.6,102.9 48.2,126.7 72,115.3 73.5,135.2 138,70.6 118.1,69.1 129.5,45.3 105.8,56.7 103.7,30.5 
	88.9,52.2 74,30.5 72,56.7 48.2,45.3 59.6,69.1 33.3,71.1 55.1,86 33.3,100.9 "/>
<path d="M97.4,0C43.6,0,0,43.6,0,97.5s43.6,97.4,97.4,97.4s97.4-43.6,97.4-97.4l0,0C194.9,43.6,151.3,0,97.4,0L97.4,0z M97.4,182.9
	c-47.2,0-85.4-38.3-85.4-85.4S50.2,12,97.4,12s85.4,38.3,85.4,85.4l0,0C182.9,144.6,144.6,182.9,97.4,182.9
	C97.5,182.9,97.5,182.9,97.4,182.9L97.4,182.9L97.4,182.9z"/>
</svg>
