<?xml version="1.0" encoding="utf-8"?>
<!-- Generator: Adobe Illustrator 19.2.0, SVG Export Plug-In . SVG Version: 6.00 Build 0)  -->
<svg version="1.1" id="Waterproof" xmlns="http://www.w3.org/2000/svg" xmlns:xlink="http://www.w3.org/1999/xlink" x="0px" y="0px"
	 viewBox="0 0 194.9 194.9" style="enable-background:new 0 0 194.9 194.9;" xml:space="preserve">
<style type="text/css">
	.st0{fill:#FF671F;}
	.st1{fill:#2DCCD3;}
</style>
<title>waterproof</title>
<path d="M97.4,0C43.6,0,0,43.6,0,97.4s43.6,97.4,97.4,97.4s97.4-43.6,97.4-97.4l0,0C194.9,43.6,151.3,0,97.4,0C97.4,0,97.4,0,97.4,0
	L97.4,0z M97.4,182.9c-47.2,0-85.4-38.3-85.4-85.4S50.2,12,97.4,12s85.4,38.3,85.4,85.4l0,0l0,0C182.9,144.6,144.6,182.9,97.4,182.9
	C97.5,182.9,97.5,182.9,97.4,182.9L97.4,182.9L97.4,182.9z"/>
<path class="st0" d="M97.4,175.2c42.9,0,77.7-34.8,77.7-77.7c0-9-1.6-17.9-4.6-26.4l-99.5,99.5C79.5,173.6,88.5,175.2,97.4,175.2z"
	/>
<path class="st1" d="M93.3,97c0,0-21,0.9-26.6,6.4c-5.4,5.7-5.2,14.7,0.5,20.2c5.5,5.2,14.1,5.2,19.6,0C92.4,118,93.3,97,93.3,97z"
	/>
<path class="st1" d="M132,58.2c0,0-21,0.9-26.6,6.4c-5.4,5.7-5.2,14.7,0.5,20.2c5.5,5.2,14.1,5.2,19.6,0
	C131.1,79.3,132,58.2,132,58.2z"/>
<path class="st1" d="M85.8,48c0,0-21,0.9-26.6,6.4c-5.6,5.6-5.6,14.6,0,20.2c5.6,5.6,14.6,5.6,20.2,0C84.9,69.1,85.8,48,85.8,48z"/>
</svg>
