<?xml version="1.0" encoding="utf-8"?>
<!-- Generator: Adobe Illustrator 19.2.0, SVG Export Plug-In . SVG Version: 6.00 Build 0)  -->
<svg version="1.1" id="Windproof" xmlns="http://www.w3.org/2000/svg" xmlns:xlink="http://www.w3.org/1999/xlink" x="0px" y="0px"
	 viewBox="0 0 194.9 194.9" style="enable-background:new 0 0 194.9 194.9;" xml:space="preserve">
<style type="text/css">
	.st0{fill:#FF671F;}
	.st1{fill:#5EC4C3;}
</style>
<title>windproof</title>
<path class="st0" d="M170.6,71.1l-99.5,99.5c40.4,14.6,84.9-6.4,99.5-46.8C176.7,106.8,176.7,88.1,170.6,71.1z"/>
<path class="st1" d="M134.8,29.3c-7.2-4-15-6.8-23.1-8.3L125,34.4c9.5,9.5,9.5,25,0,34.5l-5.4,5.4c-0.1-9.1-3.8-17.8-10.2-24.3
	L80.9,21.5c-3.9,0.9-7.8,2-11.6,3.5l32.6,32.6c9.5,9.5,9.5,25,0,34.5l-5.1,5.1c-0.1-9.1-3.8-17.9-10.3-24.3L49.8,36.1
	c-2.8,2.2-5.5,4.6-8,7.1L79,80.4c9.5,9.5,9.6,25,0,34.5c0,0,0,0,0,0l0,0l-8.5,8.5l-8.9-8.9l-11,36.2L86.9,140l-8.9-9l54.6-54.6
	C145.3,63.6,146.3,43.2,134.8,29.3z"/>
<path d="M97.4,0C43.6,0,0,43.6,0,97.5s43.6,97.4,97.4,97.4s97.4-43.6,97.4-97.4l0,0C194.9,43.6,151.3,0,97.4,0L97.4,0z M97.4,182.9
	c-47.2,0-85.4-38.3-85.4-85.4S50.2,12,97.4,12s85.4,38.3,85.4,85.4l0,0C182.9,144.6,144.6,182.9,97.4,182.9
	C97.5,182.9,97.5,182.9,97.4,182.9L97.4,182.9L97.4,182.9z"/>
</svg>
