<?xml version="1.0" encoding="utf-8"?>
<!-- Generator: Adobe Illustrator 19.2.0, SVG Export Plug-In . SVG Version: 6.00 Build 0)  -->
<svg version="1.1" id="Breathable" xmlns="http://www.w3.org/2000/svg" xmlns:xlink="http://www.w3.org/1999/xlink" x="0px" y="0px"
	 viewBox="0 0 194.9 194.9" style="enable-background:new 0 0 194.9 194.9;" xml:space="preserve">
<style type="text/css">
	.st0{fill:#2DCCD3;}
	.st1{fill:#FF671F;}
</style>
<title>breathable</title>
<circle class="st0" cx="135.8" cy="106.9" r="7.1"/>
<circle class="st0" cx="164.2" cy="78.5" r="7.1"/>
<circle class="st0" cx="79" cy="163.7" r="7.1"/>
<circle class="st0" cx="107.4" cy="135.3" r="7.1"/>
<circle class="st0" cx="121.6" cy="149.5" r="7.1"/>
<circle class="st0" cx="150" cy="121.1" r="7.1"/>
<path class="st1" d="M80.8,55.8l-36.1-11l10.7,36.3l9.1-9l84.1,84.1c2.7-2.3,5.2-4.8,7.6-7.5L72,64.6L80.8,55.8z"/>
<path class="st1" d="M141,58.2l-36.1-11l10.7,36.2l9.1-9l47,47c1.3-4,2.3-8,2.9-12.1l-42.4-42.4L141,58.2z"/>
<path class="st1" d="M83.5,115.7l-36.1-11L58.1,141l9.1-9l42.2,42.2c4.1-0.6,8.2-1.6,12.2-2.9l-46.8-46.9L83.5,115.7z"/>
<path d="M97.4,0C43.6,0,0,43.6,0,97.5s43.6,97.4,97.4,97.4s97.4-43.6,97.4-97.4l0,0C194.9,43.6,151.3,0,97.4,0L97.4,0z M97.4,182.9
	c-47.2,0-85.4-38.3-85.4-85.4S50.2,12,97.4,12s85.4,38.3,85.4,85.4l0,0C182.9,144.6,144.6,182.9,97.4,182.9
	C97.5,182.9,97.5,182.9,97.4,182.9L97.4,182.9L97.4,182.9z"/>
</svg>
