<?xml version="1.0" encoding="utf-8"?>
<!-- Generator: Adobe Illustrator 19.2.0, SVG Export Plug-In . SVG Version: 6.00 Build 0)  -->
<svg version="1.1" id="Race_Fit" xmlns="http://www.w3.org/2000/svg" xmlns:xlink="http://www.w3.org/1999/xlink" x="0px" y="0px"
	 viewBox="0 0 194.9 194.9" style="enable-background:new 0 0 194.9 194.9;" xml:space="preserve">
<style type="text/css">
	.st0{fill:none;}
	.st1{fill:#2DCCD3;}
	.st2{fill:#FF671F;}
</style>
<title>race_fit</title>
<path d="M97.4,0C43.6,0,0,43.6,0,97.5s43.6,97.4,97.4,97.4s97.4-43.6,97.4-97.4l0,0C194.9,43.6,151.3,0,97.4,0L97.4,0z M97.4,182.9
	c-47.2,0-85.4-38.3-85.4-85.4S50.2,12,97.4,12s85.4,38.3,85.4,85.4l0,0C182.9,144.6,144.6,182.9,97.4,182.9
	C97.5,182.9,97.5,182.9,97.4,182.9L97.4,182.9L97.4,182.9z"/>
<rect x="86" y="86.8" class="st0" width="21.2" height="21.2"/>
<path class="st1" d="M136.8,150.5h17.3c28-29.8,28-76.3,0-106.2h-17.3V150.5z"/>
<path class="st1" d="M55.7,150.5V44.4h-15c-28,29.8-28,76.3,0,106.2H55.7z"/>
<rect x="107.2" y="44.4" class="st2" width="21.2" height="21.2"/>
<rect x="86" y="65.6" class="st2" width="21.2" height="21.2"/>
<rect x="107.2" y="86.8" class="st2" width="21.2" height="21.2"/>
<rect x="86" y="108.1" class="st2" width="21.2" height="21.2"/>
<rect x="64.8" y="44.4" class="st2" width="21.2" height="21.2"/>
<rect x="64.8" y="86.8" class="st2" width="21.2" height="21.2"/>
<rect x="107.2" y="129.3" class="st2" width="21.2" height="21.2"/>
<rect x="64.8" y="129.3" class="st2" width="21.2" height="21.2"/>
</svg>
