<?xml version="1.0" encoding="utf-8"?>
<!-- Generator: Adobe Illustrator 19.2.0, SVG Export Plug-In . SVG Version: 6.00 Build 0)  -->
<svg version="1.1" id="Showerproof" xmlns="http://www.w3.org/2000/svg" xmlns:xlink="http://www.w3.org/1999/xlink" x="0px"
	 y="0px" viewBox="0 0 194.9 194.9" style="enable-background:new 0 0 194.9 194.9;" xml:space="preserve">
<style type="text/css">
	.st0{fill:#FF671F;}
	.st1{fill:#2DCCD3;}
</style>
<title>showerproof</title>
<path d="M97.4,0C43.6,0,0,43.6,0,97.5s43.6,97.4,97.4,97.4s97.4-43.6,97.4-97.4l0,0C194.9,43.6,151.3,0,97.4,0L97.4,0z M97.4,182.9
	c-47.2,0-85.4-38.3-85.4-85.4S50.2,12,97.4,12s85.4,38.3,85.4,85.4l0,0C182.9,144.6,144.6,182.9,97.4,182.9
	C97.5,182.9,97.5,182.9,97.4,182.9L97.4,182.9L97.4,182.9z"/>
<path class="st0" d="M79.7,173.1l93.4-93.4c-0.9-3.9-2.1-7.7-3.6-11.4L68.2,169.5C72,171,75.8,172.2,79.7,173.1z"/>
<path class="st0" d="M97.4,175.2c2.2,0,4.4-0.1,6.6-0.3l70.9-70.9c0.2-2.2,0.3-4.4,0.3-6.6c0-2.8-0.2-5.6-0.4-8.3l-85.6,85.6
	C91.9,175,94.7,175.2,97.4,175.2z"/>
<path class="st0" d="M172.6,117.3l-55.3,55.3C144.3,165.4,165.4,144.3,172.6,117.3z"/>
<path class="st1" d="M88.8,95.6c0,0-21,0.9-26.6,6.4c-5.4,5.8-5.1,14.8,0.7,20.2c5.5,5.1,14,5.1,19.5,0
	C88,116.6,88.8,95.6,88.8,95.6z"/>
<path class="st1" d="M127.6,56.8c0,0-21,0.9-26.6,6.4c-5.4,5.7-5.2,14.7,0.5,20.2c5.5,5.2,14.1,5.2,19.6,0
	C126.7,77.8,127.6,56.8,127.6,56.8z"/>
<path class="st1" d="M81.4,46.6c0,0-21,0.9-26.6,6.4c-5.4,5.7-5.2,14.7,0.5,20.2c5.5,5.2,14.1,5.2,19.6,0
	C80.5,67.6,81.4,46.6,81.4,46.6z"/>
</svg>
