<?xml version="1.0" encoding="utf-8"?>
<!-- Generator: Adobe Illustrator 19.2.0, SVG Export Plug-In . SVG Version: 6.00 Build 0)  -->
<svg version="1.1" id="Thermal" xmlns="http://www.w3.org/2000/svg" xmlns:xlink="http://www.w3.org/1999/xlink" x="0px" y="0px"
	 viewBox="0 0 194.9 194.9" style="enable-background:new 0 0 194.9 194.9;" xml:space="preserve">
<style type="text/css">
	.st0{fill:#2DCCD3;}
	.st1{fill:#FF671F;}
</style>
<title>thermal</title>
<path class="st0" d="M95.7,169.9c17.8,0,32.2-14.4,32.2-32.2c0-8.1-3-15.8-8.5-21.8V48.7c0.3-13.1-10.1-24-23.3-24.2
	S72.2,34.7,72,47.8c0,0.3,0,0.6,0,1v67.1c-12.1,13.1-11.2,33.5,1.9,45.5C79.8,166.9,87.6,169.9,95.7,169.9z M83.1,48.7
	c0-7,5.6-12.6,12.6-12.6c7,0,12.6,5.6,12.6,12.6v3.5h-8.4v7.1h8.4v11h-8.4v7.1h8.4v11h-8.4v7.1h8.4v25.1c9.4,7,11.3,20.2,4.3,29.5
	c-7,9.4-20.2,11.3-29.5,4.3c-9.4-7-11.3-20.2-4.3-29.5c1.2-1.7,2.7-3.1,4.3-4.3L83.1,48.7L83.1,48.7z"/>
<path class="st1" d="M95.7,146.8c5,0,9.1-4,9.1-9.1c0-3.4-1.9-6.5-4.9-8.1v-22.7h-8.5v22.8c-4.4,2.3-6.2,7.8-3.8,12.3
	C89.2,144.9,92.3,146.8,95.7,146.8z"/>
<path d="M97.4,0C43.6,0,0,43.6,0,97.5s43.6,97.4,97.4,97.4s97.4-43.6,97.4-97.4l0,0C194.9,43.6,151.3,0,97.4,0L97.4,0z M97.4,182.9
	c-47.2,0-85.4-38.3-85.4-85.4S50.2,12,97.4,12s85.4,38.3,85.4,85.4l0,0C182.9,144.6,144.6,182.9,97.4,182.9
	C97.5,182.9,97.5,182.9,97.4,182.9L97.4,182.9L97.4,182.9z"/>
</svg>
