<?xml version="1.0" encoding="utf-8"?>
<!-- Generator: Adobe Illustrator 19.2.0, SVG Export Plug-In . SVG Version: 6.00 Build 0)  -->
<svg version="1.1" id="Valuables_Pocket" xmlns="http://www.w3.org/2000/svg" xmlns:xlink="http://www.w3.org/1999/xlink" x="0px"
	 y="0px" viewBox="0 0 194.9 194.9" style="enable-background:new 0 0 194.9 194.9;" xml:space="preserve">
<style type="text/css">
	.st0{fill:#FF671F;}
	.st1{fill:#2DCCD3;}
</style>
<title>valuables_pocket</title>
<path class="st0" d="M97.4,19.8c-42.9,0-77.6,34.8-77.6,77.6s34.8,77.6,77.6,77.6s77.6-34.8,77.6-77.6S140.3,19.8,97.4,19.8
	C97.4,19.8,97.4,19.8,97.4,19.8L97.4,19.8z M68.9,55.6H126l1.8,2l21.5,23.8l2,2.2l-2,2.6l-47.8,62.3l-4.1,5.3l-4.1-5.3L45.6,86.1
	l-2-2.6l2-2.2l21.5-23.8L68.9,55.6z"/>
<polygon class="st1" points="88.9,61.9 75.1,61.9 77.2,75.1 "/>
<polygon class="st1" points="111.5,79.9 97.4,64 83.4,79.9 "/>
<polygon class="st1" points="119.8,61.9 105.9,61.9 117.7,75.1 "/>
<polygon class="st1" points="67.9,66 55.4,79.9 70.2,79.9 "/>
<polygon class="st1" points="127,66 124.7,79.9 139.5,79.9 "/>
<polygon class="st1" points="71.8,87.7 54.7,87.7 88.5,131.8 "/>
<polygon class="st1" points="140.2,87.7 123.2,87.7 106.4,131.8 "/>
<polygon class="st1" points="80.1,87.7 97.4,133.4 114.8,87.7 "/>
<path d="M97.4,0C43.6,0,0,43.6,0,97.5s43.6,97.4,97.4,97.4s97.4-43.6,97.4-97.4l0,0C194.9,43.6,151.3,0,97.4,0L97.4,0z M97.4,182.9
	c-47.2,0-85.4-38.3-85.4-85.4S50.2,12,97.4,12s85.4,38.3,85.4,85.4l0,0C182.9,144.6,144.6,182.9,97.4,182.9
	C97.5,182.9,97.5,182.9,97.4,182.9L97.4,182.9L97.4,182.9z"/>
</svg>
